<svg width="16" height="16" viewBox="0 0 16 16" fill="none" xmlns="http://www.w3.org/2000/svg">
<path fill-rule="evenodd" clip-rule="evenodd" d="M15.3034 1.36571H9.51486V0L0 1.47041V14.3591L9.51486 16V13.9758H15.3034C15.4787 13.9846 15.6504 13.9237 15.781 13.8062C15.9115 13.6887 15.9903 13.5242 16 13.3487V1.9922C15.9901 1.81682 15.9113 1.65248 15.7808 1.5351C15.6503 1.41771 15.4786 1.35681 15.3034 1.36571ZM15.3949 13.4528H9.49543L9.48571 12.372H10.9069V11.1133H9.47486L9.468 10.3695H10.9069V9.11082H9.45714L9.45029 8.36703H10.9069V7.10831H9.44571V6.36453H10.9069V5.10581H9.44571V4.36202H10.9069V3.10331H9.44571V1.95902H15.3949V13.4528Z" fill="#20744A"/>
<path d="M11.707 3.10156H14.1773V4.36028H11.707V3.10156Z" fill="#20744A"/>
<path d="M11.707 5.10449H14.1773V6.36321H11.707V5.10449Z" fill="#20744A"/>
<path d="M11.707 7.10791H14.1773V8.36663H11.707V7.10791Z" fill="#20744A"/>
<path d="M11.707 9.11084H14.1773V10.3696H11.707V9.11084Z" fill="#20744A"/>
<path d="M11.707 11.1138H14.1773V12.3725H11.707V11.1138Z" fill="#20744A"/>
<path fill-rule="evenodd" clip-rule="evenodd" d="M2.48405 4.95192L3.71033 4.88154L4.48119 7.00363L5.39205 4.79401L6.61833 4.72363L5.12919 7.73654L6.61833 10.7569L5.32176 10.6694L4.44633 8.36704L3.57033 10.5818L2.37891 10.4765L3.76291 7.80863L2.48405 4.95192Z" fill="white"/>
</svg>
