<svg xmlns="http://www.w3.org/2000/svg" xmlns:xlink="http://www.w3.org/1999/xlink" width="69px" height="69px">
    <path fill-rule="evenodd" fill="rgb(255, 255, 255)"
        d="M68.627,61.962 L61.828,68.807 C61.712,68.924 61.554,68.990 61.388,68.990 C61.224,68.990 61.065,68.924 60.948,68.807 L43.602,51.347 C43.359,51.102 43.359,50.705 43.602,50.461 L46.561,47.482 L42.014,42.905 C37.253,47.463 31.128,49.762 24.990,49.762 C18.658,49.762 12.325,47.337 7.504,42.485 C-2.138,32.780 -2.138,16.989 7.504,7.284 C12.175,2.583 18.384,-0.005 24.990,-0.005 C31.595,-0.005 37.805,2.583 42.477,7.284 C51.969,16.839 52.095,32.282 42.894,42.019 L47.441,46.596 L50.402,43.616 C50.645,43.371 51.039,43.371 51.282,43.616 L68.627,61.076 C68.870,61.320 68.870,61.718 68.627,61.962 ZM41.596,8.171 C37.161,3.706 31.263,1.247 24.990,1.247 C18.717,1.247 12.819,3.706 8.384,8.171 C-0.772,17.386 -0.772,32.383 8.384,41.599 C17.542,50.816 32.440,50.816 41.596,41.599 C50.752,32.383 50.752,17.386 41.596,8.171 ZM50.842,44.945 L44.922,50.904 L61.388,67.478 L67.309,61.518 L50.842,44.945 ZM24.990,40.112 C21.114,40.112 17.239,38.626 14.287,35.657 C8.386,29.717 8.386,20.052 14.287,14.110 C20.189,8.172 29.792,8.172 35.693,14.110 C38.553,16.989 40.127,20.814 40.127,24.884 C40.127,28.953 38.553,32.780 35.693,35.657 C32.743,38.626 28.866,40.112 24.990,40.112 ZM34.813,14.997 C32.105,12.272 28.547,10.908 24.990,10.908 C21.432,10.908 17.875,12.271 15.167,14.997 C9.751,20.450 9.751,29.319 15.167,34.771 C20.584,40.224 29.397,40.224 34.813,34.771 C37.437,32.130 38.882,28.619 38.882,24.884 C38.882,21.149 37.437,17.638 34.813,14.997 Z" />
</svg>