<svg xmlns="http://www.w3.org/2000/svg" xmlns:xlink="http://www.w3.org/1999/xlink" width="417px" height="479px">
    <defs>
        <filter filterUnits="userSpaceOnUse" id="Filter_0" x="0px" y="0px" width="417px" height="479px">
            <feOffset in="SourceAlpha" dx="0" dy="0" />
            <feGaussianBlur result="blurOut" stdDeviation="6.325" />
            <feFlood flood-color="rgb(0, 0, 0)" result="floodOut" />
            <feComposite operator="atop" in="floodOut" in2="blurOut" />
            <feComponentTransfer>
                <feFuncA type="linear" slope="0.05" />
            </feComponentTransfer>
            <feMerge>
                <feMergeNode />
                <feMergeNode in="SourceGraphic" />
            </feMerge>
        </filter>
    </defs>
    <g filter="url(#Filter_0)">
        <path fill-rule="evenodd" opacity="0.078" fill="rgb(255, 255, 255)"
            d="M319.051,151.458 L136.097,151.458 C67.879,151.458 39.758,209.455 39.758,209.455 L39.758,141.919 C39.758,85.075 86.728,38.994 144.670,38.994 L317.703,38.994 C348.816,38.994 375.287,62.718 376.355,93.209 C377.483,125.212 351.389,151.458 319.051,151.458 ZM144.670,162.074 L260.936,162.074 C292.047,162.074 318.520,185.797 319.586,216.291 C320.714,248.292 294.619,274.540 262.284,274.540 L262.251,274.540 C242.712,274.540 224.396,279.646 208.588,288.570 C207.475,289.192 206.378,289.837 205.295,290.501 C205.216,290.549 205.139,290.600 205.060,290.648 C204.028,291.285 203.007,291.935 202.004,292.602 C201.138,293.169 200.301,293.774 199.455,294.365 C194.659,297.733 190.132,301.459 185.977,305.556 C184.810,306.698 183.674,307.871 182.562,309.064 C182.221,309.430 181.896,309.810 181.560,310.181 C180.801,311.019 180.046,311.860 179.314,312.722 C178.921,313.184 178.543,313.658 178.158,314.127 C177.509,314.918 176.864,315.713 176.237,316.522 C175.838,317.039 175.449,317.565 175.059,318.089 C174.476,318.873 173.900,319.661 173.338,320.461 C172.947,321.017 172.564,321.579 172.184,322.143 C171.652,322.933 171.131,323.730 170.621,324.534 C170.248,325.121 169.877,325.711 169.516,326.306 C169.027,327.109 168.555,327.923 168.088,328.740 C167.739,329.351 167.387,329.961 167.051,330.579 C166.599,331.407 166.169,332.247 165.740,333.088 C165.421,333.712 165.095,334.331 164.790,334.961 C164.363,335.840 163.963,336.734 163.561,337.626 C163.287,338.234 162.999,338.835 162.736,339.448 C162.238,340.612 161.774,341.792 161.318,342.976 C160.969,343.881 160.640,344.795 160.316,345.711 C159.985,346.648 159.648,347.582 159.343,348.531 C159.096,349.298 158.879,350.077 158.650,350.852 C158.411,351.658 158.167,352.462 157.948,353.277 C157.728,354.094 157.532,354.921 157.331,355.746 C157.140,356.533 156.947,357.319 156.774,358.113 C156.589,358.959 156.423,359.812 156.259,360.665 C156.108,361.453 155.961,362.242 155.828,363.036 C155.682,363.901 155.549,364.770 155.425,365.642 C155.312,366.440 155.209,367.242 155.114,368.045 C155.010,368.922 154.912,369.800 154.830,370.683 C154.743,371.626 154.672,372.574 154.610,373.524 C154.568,374.160 154.518,374.797 154.488,375.436 C154.410,377.078 154.360,378.728 154.360,380.390 L154.360,382.390 C154.360,383.301 154.332,384.206 154.288,385.106 C154.275,385.388 154.252,385.667 154.235,385.947 C154.195,386.572 154.147,387.195 154.087,387.814 C154.056,388.131 154.022,388.446 153.985,388.760 C153.917,389.354 153.838,389.943 153.751,390.531 C153.706,390.836 153.664,391.143 153.613,391.447 C153.508,392.083 153.388,392.714 153.261,393.343 C153.212,393.587 153.171,393.833 153.118,394.076 C152.947,394.867 152.758,395.651 152.553,396.429 C152.414,396.959 152.257,397.482 152.103,398.006 C152.032,398.245 151.965,398.486 151.891,398.724 C151.683,399.397 151.459,400.062 151.227,400.724 C151.226,400.726 151.226,400.727 151.225,400.729 C151.225,400.730 151.224,400.731 151.224,400.733 C150.275,403.432 149.123,406.037 147.785,408.533 C147.693,408.704 147.603,408.877 147.509,409.048 C147.240,409.537 146.962,410.021 146.679,410.502 C146.537,410.742 146.393,410.981 146.248,411.219 C145.974,411.668 145.698,412.115 145.412,412.556 C145.244,412.816 145.068,413.070 144.896,413.326 C144.423,414.028 143.936,414.718 143.432,415.398 C143.190,415.726 142.951,416.056 142.702,416.379 C142.444,416.711 142.177,417.035 141.912,417.361 C141.643,417.694 141.373,418.026 141.096,418.352 C140.833,418.661 140.566,418.966 140.297,419.270 C139.992,419.613 139.683,419.952 139.371,420.287 C139.115,420.562 138.860,420.838 138.599,421.108 C138.200,421.519 137.793,421.921 137.382,422.320 C137.194,422.503 137.012,422.691 136.821,422.871 C136.228,423.432 135.621,423.978 135.004,424.514 C134.789,424.700 134.568,424.880 134.350,425.064 C133.910,425.434 133.466,425.800 133.015,426.158 C132.771,426.350 132.526,426.540 132.279,426.729 C131.819,427.081 131.352,427.426 130.881,427.765 C130.655,427.927 130.432,428.090 130.204,428.249 C129.571,428.690 128.929,429.120 128.277,429.536 C128.211,429.578 128.147,429.624 128.081,429.665 C127.346,430.131 126.598,430.577 125.840,431.010 C125.663,431.111 125.483,431.206 125.304,431.305 C124.718,431.632 124.125,431.950 123.526,432.257 C123.302,432.371 123.078,432.483 122.852,432.595 C122.255,432.891 121.652,433.175 121.044,433.451 C120.849,433.539 120.656,433.630 120.460,433.716 C118.834,434.430 117.169,435.074 115.466,435.640 C115.307,435.693 115.146,435.741 114.986,435.792 C114.295,436.015 113.598,436.226 112.896,436.424 C112.676,436.486 112.456,436.546 112.236,436.605 C111.546,436.791 110.851,436.963 110.151,437.124 C109.964,437.167 109.778,437.212 109.590,437.254 C107.810,437.643 105.999,437.952 104.160,438.175 C103.964,438.199 103.766,438.217 103.570,438.239 C102.857,438.318 102.141,438.385 101.421,438.439 C101.155,438.458 100.889,438.476 100.622,438.492 C99.934,438.533 99.242,438.562 98.548,438.579 C98.297,438.586 98.048,438.596 97.797,438.599 C96.865,438.611 95.931,438.607 94.989,438.575 C64.597,437.561 40.824,412.730 39.758,383.128 L39.758,382.912 C39.763,382.733 39.775,382.556 39.781,382.377 L39.758,381.066 L39.758,264.1000 C39.758,208.168 86.742,162.074 144.670,162.074 Z" />
    </g>
</svg>