<svg xmlns="http://www.w3.org/2000/svg" xmlns:xlink="http://www.w3.org/1999/xlink" width="80px" height="72px">
    <path fill-rule="evenodd" fill="rgb(255, 255, 255)"
        d="M79.334,60.926 L17.692,60.926 C17.326,60.926 17.028,60.629 17.028,60.264 L17.028,17.853 C17.028,17.488 17.326,17.191 17.692,17.191 L79.334,17.191 C79.701,17.191 79.999,17.488 79.999,17.853 L79.999,60.264 C79.999,60.629 79.701,60.926 79.334,60.926 ZM78.670,18.517 L18.356,18.517 L18.356,59.601 L78.670,59.601 L78.670,18.517 ZM22.328,21.611 L37.216,21.611 C37.582,21.611 37.880,21.909 37.880,22.275 L37.880,37.136 C37.880,37.502 37.582,37.798 37.216,37.798 L22.328,37.798 C21.962,37.798 21.664,37.502 21.664,37.136 L21.664,22.275 C21.664,21.909 21.962,21.611 22.328,21.611 ZM22.991,36.473 L36.551,36.473 L36.551,22.937 L22.991,22.937 L22.991,36.473 ZM22.328,40.318 L37.216,40.318 C37.582,40.318 37.880,40.616 37.880,40.982 L37.880,55.842 C37.880,56.208 37.582,56.505 37.216,56.505 L22.328,56.505 C21.962,56.505 21.664,56.208 21.664,55.842 L21.664,40.982 C21.664,40.616 21.962,40.318 22.328,40.318 ZM22.991,55.179 L36.551,55.179 L36.551,41.645 L22.991,41.645 L22.991,55.179 ZM41.069,21.611 L55.958,21.611 C56.324,21.611 56.622,21.909 56.622,22.275 L56.622,37.136 C56.622,37.502 56.324,37.798 55.958,37.798 L41.069,37.798 C40.702,37.798 40.405,37.502 40.405,37.136 L40.405,22.275 C40.405,21.909 40.702,21.611 41.069,21.611 ZM41.733,36.473 L55.293,36.473 L55.293,22.937 L41.733,22.937 L41.733,36.473 ZM41.069,40.318 L55.958,40.318 C56.324,40.318 56.622,40.616 56.622,40.982 L56.622,55.842 C56.622,56.208 56.324,56.505 55.958,56.505 L41.069,56.505 C40.702,56.505 40.405,56.208 40.405,55.842 L40.405,40.982 C40.405,40.616 40.702,40.318 41.069,40.318 ZM41.733,55.179 L55.293,55.179 L55.293,41.645 L41.733,41.645 L41.733,55.179 ZM59.811,21.611 L74.698,21.611 C75.064,21.611 75.363,21.909 75.363,22.275 L75.363,37.136 C75.363,37.502 75.064,37.798 74.698,37.798 L59.811,37.798 C59.444,37.798 59.146,37.502 59.146,37.136 L59.146,22.275 C59.146,21.909 59.444,21.611 59.811,21.611 ZM60.475,36.473 L74.034,36.473 L74.034,22.937 L60.475,22.937 L60.475,36.473 ZM59.811,40.318 L74.698,40.318 C75.064,40.318 75.363,40.616 75.363,40.982 L75.363,55.842 C75.363,56.208 75.064,56.505 74.698,56.505 L59.811,56.505 C59.444,56.505 59.146,56.208 59.146,55.842 L59.146,40.982 C59.146,40.616 59.444,40.318 59.811,40.318 ZM60.475,55.179 L74.034,55.179 L74.034,41.645 L60.475,41.645 L60.475,55.179 ZM25.104,8.587 L21.691,10.554 C21.591,10.612 21.475,10.643 21.359,10.643 C21.122,10.643 20.902,10.516 20.784,10.311 C20.695,10.158 20.671,9.979 20.717,9.808 C20.763,9.637 20.873,9.494 21.027,9.406 L24.440,7.438 C24.592,7.349 24.770,7.326 24.942,7.372 C25.114,7.418 25.259,7.528 25.347,7.681 C25.531,7.998 25.421,8.404 25.104,8.587 ZM18.647,7.031 C18.529,7.235 18.309,7.362 18.072,7.362 C17.956,7.362 17.841,7.332 17.740,7.273 C17.586,7.185 17.477,7.043 17.431,6.871 C17.385,6.700 17.408,6.521 17.497,6.368 L19.468,2.961 C19.556,2.807 19.700,2.697 19.872,2.651 C20.044,2.605 20.222,2.629 20.376,2.719 C20.692,2.901 20.801,3.307 20.618,3.623 L18.647,7.031 ZM13.583,6.162 C13.217,6.162 12.919,5.864 12.919,5.498 L12.919,1.564 C12.919,1.199 13.217,0.901 13.583,0.901 C13.949,0.901 14.247,1.199 14.247,1.564 L14.247,5.498 C14.247,5.864 13.949,6.162 13.583,6.162 ZM9.426,7.273 C9.325,7.332 9.211,7.362 9.094,7.362 C8.857,7.362 8.636,7.235 8.519,7.031 L6.547,3.623 C6.365,3.307 6.474,2.901 6.791,2.718 C6.942,2.629 7.120,2.605 7.292,2.651 C7.465,2.697 7.609,2.806 7.698,2.960 L9.669,6.368 C9.757,6.521 9.781,6.700 9.735,6.871 C9.688,7.043 9.580,7.185 9.426,7.273 ZM6.382,10.311 C6.263,10.516 6.044,10.643 5.807,10.643 C5.691,10.643 5.575,10.612 5.475,10.554 L2.061,8.587 C1.744,8.404 1.636,7.998 1.818,7.681 C1.907,7.528 2.049,7.418 2.222,7.372 C2.392,7.326 2.571,7.350 2.725,7.438 L6.140,9.406 C6.293,9.494 6.404,9.637 6.449,9.808 C6.495,9.979 6.472,10.158 6.382,10.311 ZM5.268,14.461 C5.268,14.826 4.971,15.124 4.604,15.124 L0.663,15.124 C0.296,15.124 -0.002,14.826 -0.002,14.461 C-0.002,14.095 0.296,13.798 0.663,13.798 L4.604,13.798 C4.971,13.798 5.268,14.095 5.268,14.461 ZM2.062,20.335 L5.475,18.368 C5.627,18.280 5.805,18.255 5.976,18.300 C6.148,18.345 6.292,18.456 6.382,18.610 C6.472,18.764 6.495,18.942 6.449,19.113 C6.402,19.284 6.292,19.427 6.138,19.516 L2.726,21.483 C2.626,21.541 2.511,21.572 2.394,21.572 C2.157,21.572 1.937,21.445 1.818,21.242 C1.730,21.087 1.706,20.908 1.752,20.737 C1.798,20.566 1.908,20.423 2.062,20.335 ZM8.519,21.891 C8.607,21.737 8.752,21.626 8.924,21.581 C9.096,21.536 9.273,21.560 9.426,21.649 C9.580,21.737 9.688,21.880 9.735,22.051 C9.781,22.222 9.758,22.401 9.669,22.554 L7.698,25.961 C7.580,26.165 7.359,26.293 7.123,26.293 C7.006,26.293 6.891,26.262 6.790,26.202 C6.637,26.115 6.527,25.973 6.481,25.801 C6.436,25.630 6.459,25.452 6.547,25.298 L8.519,21.891 ZM6.324,14.461 C6.324,10.466 9.580,7.216 13.583,7.216 C17.585,7.216 20.842,10.466 20.842,14.461 C20.842,14.826 20.544,15.124 20.178,15.124 C20.000,15.124 19.834,15.055 19.708,14.929 C19.583,14.804 19.514,14.638 19.514,14.461 C19.514,11.197 16.853,8.541 13.583,8.541 C10.312,8.541 7.652,11.197 7.652,14.461 C7.652,17.725 10.312,20.381 13.583,20.381 C13.761,20.381 13.928,20.450 14.053,20.576 C14.177,20.699 14.247,20.866 14.247,21.044 C14.247,21.410 13.949,21.706 13.583,21.706 C9.580,21.706 6.324,18.456 6.324,14.461 ZM27.079,70.600 L43.321,70.600 L43.321,63.633 C43.321,63.267 43.619,62.969 43.986,62.969 C44.352,62.969 44.650,63.267 44.650,63.633 L44.650,70.600 L52.376,70.600 L52.376,63.633 C52.376,63.267 52.674,62.969 53.041,62.969 C53.406,62.969 53.704,63.267 53.704,63.633 L53.704,70.600 L69.946,70.600 C70.313,70.600 70.611,70.898 70.611,71.264 C70.611,71.629 70.313,71.926 69.946,71.926 L27.079,71.926 C26.713,71.926 26.414,71.629 26.414,71.264 C26.414,70.898 26.713,70.600 27.079,70.600 Z" />
</svg>