<svg xmlns="http://www.w3.org/2000/svg" xmlns:xlink="http://www.w3.org/1999/xlink" width="81px" height="58px">
    <path fill-rule="evenodd" fill="rgb(255, 255, 255)"
        d="M80.797,18.578 C80.555,18.333 80.159,18.333 79.916,18.578 L79.916,18.578 L72.826,25.702 L55.395,8.190 L62.485,1.066 C62.485,1.066 62.485,1.066 62.486,1.066 C62.729,0.822 62.729,0.426 62.485,0.181 C62.242,-0.063 61.848,-0.063 61.605,0.181 L54.074,7.746 C53.830,7.991 53.830,8.388 54.074,8.632 L54.518,9.077 L51.125,12.485 C51.009,12.603 50.944,12.762 50.944,12.928 C50.944,13.094 51.009,13.254 51.125,13.371 L51.798,14.046 L51.040,14.809 L38.317,16.259 C38.177,16.275 38.047,16.338 37.946,16.438 L36.583,17.808 L30.614,16.999 L28.428,14.802 L29.852,13.371 C29.968,13.254 30.035,13.094 30.035,12.928 C30.035,12.762 29.968,12.603 29.852,12.485 L26.460,9.077 L26.904,8.632 C27.147,8.388 27.147,7.991 26.904,7.746 L19.373,0.181 C19.130,-0.063 18.735,-0.063 18.493,0.181 C18.249,0.426 18.249,0.821 18.493,1.066 L18.493,1.066 L25.582,8.190 L8.152,25.702 L1.062,18.578 C0.819,18.333 0.424,18.333 0.181,18.578 C-0.063,18.822 -0.063,19.219 0.181,19.464 L7.711,27.030 C7.829,27.147 7.987,27.213 8.152,27.213 C8.317,27.213 8.476,27.147 8.593,27.030 L9.036,26.584 L12.428,29.990 C12.550,30.113 12.709,30.174 12.869,30.174 C13.027,30.174 13.187,30.113 13.309,29.990 L14.733,28.559 L16.993,30.830 L19.823,36.771 C19.821,36.773 19.819,36.773 19.818,36.775 L16.738,39.869 C16.047,40.565 15.666,41.489 15.666,42.472 C15.666,43.454 16.046,44.378 16.738,45.072 L16.738,45.073 C17.422,45.760 18.328,46.138 19.293,46.148 C18.982,46.695 18.802,47.310 18.802,47.958 C18.802,48.941 19.182,49.865 19.874,50.560 L19.874,50.560 C20.566,51.255 21.486,51.638 22.465,51.638 C23.109,51.638 23.722,51.456 24.269,51.144 C24.277,52.075 24.631,53.002 25.335,53.711 C25.335,53.712 25.335,53.712 25.335,53.712 C26.050,54.429 26.988,54.788 27.925,54.788 C28.528,54.788 29.123,54.623 29.666,54.327 C29.668,55.307 30.048,56.228 30.737,56.920 L30.737,56.922 C31.430,57.617 32.349,57.999 33.328,57.999 C34.306,57.999 35.226,57.616 35.918,56.922 L36.585,56.251 L36.711,56.377 C37.470,57.141 38.468,57.523 39.467,57.523 C40.465,57.521 41.464,57.141 42.223,56.377 C42.959,55.638 43.364,54.654 43.364,53.608 C43.364,53.592 43.364,53.575 43.364,53.559 C44.824,54.393 46.822,54.145 48.043,52.920 C48.810,52.149 49.189,51.135 49.183,50.124 C50.679,51.015 52.642,50.813 53.927,49.524 C55.210,48.235 55.409,46.262 54.524,44.760 C55.551,44.748 56.563,44.359 57.305,43.614 C58.810,42.101 58.819,39.653 57.344,38.124 L63.056,32.527 C63.172,32.413 63.240,32.258 63.244,32.094 L63.361,27.143 L64.098,26.403 L67.669,29.990 C67.792,30.113 67.950,30.174 68.110,30.174 C68.269,30.174 68.429,30.113 68.550,29.990 L71.941,26.584 L72.386,27.030 C72.502,27.147 72.661,27.213 72.826,27.213 C72.991,27.213 73.150,27.147 73.266,27.030 L80.797,19.464 C81.041,19.219 81.041,18.822 80.797,18.578 ZM12.869,28.663 L9.918,25.698 L25.579,9.963 L28.531,12.928 L12.869,28.663 ZM17.619,44.188 C17.619,44.188 17.619,44.188 17.619,44.188 C17.163,43.730 16.911,43.120 16.911,42.472 C16.911,41.823 17.163,41.213 17.619,40.756 L20.698,37.661 C21.170,37.188 21.787,36.952 22.407,36.952 C23.027,36.952 23.645,37.188 24.116,37.661 C25.058,38.608 25.058,40.148 24.116,41.094 L21.037,44.188 C20.124,45.105 18.532,45.105 17.619,44.188 ZM24.173,49.675 C23.259,50.593 21.668,50.593 20.755,49.675 C20.755,49.674 20.755,49.674 20.755,49.674 C20.299,49.217 20.048,48.607 20.048,47.958 C20.048,47.310 20.299,46.700 20.755,46.242 L24.998,41.980 C25.454,41.521 26.060,41.269 26.706,41.269 C27.352,41.269 27.958,41.521 28.414,41.980 C29.356,42.927 29.356,44.467 28.414,45.414 L24.173,49.675 ZM26.217,52.826 C25.275,51.879 25.275,50.339 26.217,49.393 L29.296,46.299 C30.208,45.383 31.800,45.380 32.713,46.300 C33.170,46.757 33.421,47.367 33.421,48.016 C33.421,48.664 33.170,49.273 32.713,49.732 L29.635,52.826 C28.691,53.772 27.158,53.772 26.217,52.826 ZM35.038,56.035 C34.124,56.955 32.531,56.953 31.619,56.036 C31.619,56.035 31.619,56.035 31.619,56.035 C31.162,55.578 30.911,54.968 30.911,54.319 C30.911,53.671 31.162,53.061 31.619,52.602 L33.595,50.617 C34.051,50.159 34.658,49.906 35.303,49.906 C35.949,49.906 36.556,50.159 37.013,50.617 C37.954,51.565 37.954,53.104 37.013,54.052 L35.038,56.035 ZM56.424,42.728 C55.391,43.768 53.708,43.768 52.674,42.728 C52.431,42.483 52.036,42.483 51.793,42.728 C51.671,42.849 51.610,43.010 51.610,43.171 C51.610,43.331 51.671,43.491 51.793,43.614 L53.046,44.872 C54.079,45.910 54.079,47.600 53.046,48.639 C52.012,49.679 50.329,49.679 49.296,48.639 L48.043,47.380 C47.800,47.136 47.406,47.136 47.162,47.380 C47.040,47.503 46.980,47.663 46.980,47.824 C46.980,47.983 47.040,48.144 47.162,48.266 C48.196,49.304 48.196,50.995 47.162,52.034 C46.160,53.041 44.413,53.041 43.411,52.035 L42.223,50.840 C42.223,50.839 42.223,50.839 42.223,50.839 C41.979,50.595 41.586,50.595 41.342,50.839 C41.099,51.083 41.099,51.480 41.342,51.724 L41.342,51.725 C41.843,52.227 42.119,52.897 42.119,53.608 C42.119,54.320 41.843,54.989 41.342,55.492 C40.308,56.532 38.625,56.532 37.592,55.492 L37.466,55.365 L37.893,54.936 C39.321,53.502 39.321,51.168 37.893,49.733 C37.028,48.863 35.758,48.538 34.592,48.756 C34.641,48.515 34.667,48.267 34.667,48.016 C34.667,47.033 34.286,46.109 33.595,45.415 C32.727,44.544 31.456,44.219 30.288,44.439 C30.526,43.268 30.198,42.002 29.296,41.095 C28.428,40.224 27.158,39.900 25.990,40.121 C26.228,38.949 25.899,37.683 24.998,36.775 C23.880,35.653 22.220,35.423 20.863,36.056 L18.071,30.194 C18.040,30.129 17.999,30.071 17.950,30.020 L15.614,27.675 L27.547,15.687 L29.882,18.034 C29.979,18.131 30.104,18.193 30.240,18.210 L35.475,18.920 L24.643,29.803 C24.526,29.921 24.460,30.080 24.460,30.246 C24.460,30.412 24.526,30.572 24.643,30.689 L25.134,31.181 C26.285,32.338 27.816,32.975 29.445,32.975 C31.075,32.975 32.607,32.338 33.759,31.181 L38.894,26.021 L43.423,26.021 L53.355,35.878 L56.424,38.961 C57.458,39.999 57.458,41.689 56.424,42.728 ZM62.304,26.435 C62.191,26.550 62.125,26.702 62.120,26.864 L62.005,31.809 L56.481,37.220 L44.117,24.950 C43.1000,24.833 43.843,24.770 43.679,24.770 L38.637,24.770 C38.472,24.770 38.313,24.835 38.196,24.952 L32.878,30.295 C30.985,32.196 27.905,32.196 26.014,30.295 L25.965,30.246 L38.674,17.478 L51.395,16.029 C51.536,16.013 51.666,15.949 51.766,15.850 L52.680,14.931 L63.217,25.518 L62.304,26.435 ZM68.110,28.663 L52.447,12.928 L55.399,9.963 L71.060,25.698 L68.110,28.663 Z" />
</svg>