<svg xmlns="http://www.w3.org/2000/svg" xmlns:xlink="http://www.w3.org/1999/xlink" width="79px" height="65px">
    <path fill-rule="evenodd" fill="rgb(255, 255, 255)"
        d="M78.958,32.731 C78.862,32.965 78.635,33.118 78.383,33.118 L71.710,33.118 C71.685,34.321 71.589,35.563 71.423,36.818 C69.293,52.876 55.570,64.985 39.504,64.985 C29.468,64.985 20.176,60.368 14.009,52.318 C13.817,52.069 13.839,51.713 14.062,51.489 L23.113,42.359 C23.246,42.226 23.427,42.150 23.620,42.179 C23.808,42.199 23.976,42.304 24.078,42.464 C27.484,47.806 33.252,50.995 39.504,50.995 C47.977,50.995 55.494,44.938 57.377,36.595 C57.641,35.425 57.794,34.259 57.837,33.118 L51.182,33.118 C50.929,33.118 50.703,32.965 50.606,32.731 C50.510,32.496 50.563,32.225 50.741,32.045 L64.342,18.326 C64.586,18.081 64.980,18.081 65.223,18.326 L78.823,32.045 C79.001,32.225 79.055,32.496 78.958,32.731 ZM64.783,19.659 L52.687,31.862 L58.471,31.862 C58.815,31.862 59.094,32.144 59.094,32.490 C59.094,33.923 58.925,35.398 58.592,36.874 C56.580,45.784 48.554,52.252 39.504,52.252 C33.081,52.252 27.139,49.103 23.458,43.789 L15.333,51.984 C21.261,59.455 30.039,63.728 39.504,63.728 C54.950,63.728 68.141,52.087 70.187,36.651 C70.375,35.232 70.470,33.832 70.470,32.490 C70.470,32.144 70.749,31.862 71.093,31.862 L76.879,31.862 L64.783,19.659 ZM55.896,22.622 C55.762,22.756 55.576,22.826 55.388,22.802 C55.201,22.783 55.032,22.678 54.930,22.518 C51.524,17.176 45.757,13.987 39.504,13.987 C31.030,13.987 23.515,20.042 21.631,28.385 C21.367,29.554 21.213,30.720 21.173,31.862 L27.826,31.862 C28.078,31.862 28.305,32.015 28.402,32.249 C28.499,32.484 28.445,32.755 28.267,32.935 L14.666,46.654 C14.545,46.777 14.386,46.838 14.225,46.838 C14.066,46.838 13.907,46.777 13.785,46.654 L0.184,32.935 C0.006,32.755 -0.047,32.484 0.049,32.249 C0.146,32.015 0.373,31.862 0.624,31.862 L7.298,31.862 C7.323,30.656 7.419,29.415 7.585,28.162 C9.714,12.105 23.436,-0.004 39.504,-0.004 C49.540,-0.004 58.833,4.613 64.999,12.664 C65.191,12.914 65.168,13.269 64.947,13.493 L55.896,22.622 ZM39.504,1.253 C24.058,1.253 10.867,12.894 8.820,28.329 C8.633,29.744 8.537,31.145 8.537,32.490 C8.537,32.837 8.258,33.118 7.914,33.118 L2.129,33.118 L14.225,45.321 L26.322,33.118 L20.537,33.118 C20.193,33.118 19.914,32.837 19.914,32.490 C19.914,31.057 20.083,29.582 20.416,28.106 C22.427,19.197 30.455,12.729 39.504,12.729 C45.928,12.729 51.870,15.879 55.550,21.193 L63.674,12.997 C57.749,5.526 48.969,1.253 39.504,1.253 Z" />
</svg>